<svg width="794" height="310" viewBox="0 0 794 310" fill="none" xmlns="http://www.w3.org/2000/svg">
<path d="M464.427 125.4C464.427 132.592 462.6 137.957 458.945 141.494C455.408 144.913 451.458 146.622 447.096 146.622H405.183C405.183 149.923 407.128 152.694 411.019 154.934C414.91 157.174 418.8 158.294 422.691 158.294C429.529 158.294 434.894 157.587 438.784 156.172L440.73 155.465C443.559 154.168 445.917 153.519 447.804 153.519C451.576 153.519 454.819 156.172 457.53 161.478C459.063 164.661 459.829 167.372 459.829 169.613C459.829 180.106 447.273 185.352 422.16 185.352C413.436 185.352 405.655 183.878 398.816 180.931C392.096 177.866 386.85 173.857 383.077 168.905C375.649 159.355 371.935 148.685 371.935 136.896C371.935 122.04 376.71 110.191 386.26 101.349C395.928 92.3885 407.954 87.9084 422.337 87.9084C438.725 87.9084 450.751 93.6854 458.415 105.24C462.423 111.37 464.427 118.091 464.427 125.4ZM427.112 130.529C431.592 130.529 433.833 128.643 433.833 124.87C433.833 122.158 432.771 119.977 430.649 118.326C428.645 116.676 425.697 115.85 421.807 115.85C418.034 115.85 414.261 117.442 410.488 120.625C406.716 123.691 404.829 126.992 404.829 130.529H427.112Z" fill="#00DEA5"/>
<path d="M529.727 171.381C525.247 177.276 518.114 180.224 508.329 180.224C498.543 180.224 489.347 175.743 480.74 166.783C472.252 157.705 468.007 147.153 468.007 135.127C468.007 123.101 472.311 112.549 480.917 103.471C489.524 94.3928 498.956 89.8537 509.213 89.8537C513.222 89.8537 516.876 90.62 520.178 92.1527C523.479 93.5675 525.719 94.9234 526.898 96.2203C528.195 97.3993 529.197 98.5193 529.904 99.5804C530.258 96.2792 531.437 93.8033 533.441 92.1527C535.564 90.3842 538.924 89.5 543.522 89.5C548.12 89.5 551.48 89.8537 553.602 90.5611C555.724 91.2685 557.198 92.5064 558.023 94.2749C558.967 95.9255 559.497 97.3993 559.615 98.6961C559.851 99.993 559.969 101.997 559.969 104.709V177.924C559.969 191.483 555.253 202.389 545.821 210.642C536.389 219.012 525.778 223.198 513.988 223.198C505.028 223.198 496.48 221.017 488.345 216.654C480.21 212.292 476.142 208.343 476.142 204.806C476.142 200.207 477.911 196.14 481.448 192.603C483.688 190.127 485.397 188.418 486.576 187.474C487.873 186.531 489.347 186.06 490.998 186.06C492.648 186.06 494.358 186.767 496.126 188.182C501.785 192.544 507.916 194.725 514.518 194.725C518.999 194.725 522.654 192.957 525.483 189.42C528.313 185.883 529.727 181.638 529.727 176.687V171.381ZM498.248 135.304C498.248 139.077 499.722 142.496 502.67 145.561C505.735 148.627 509.39 150.159 513.634 150.159C517.997 150.159 521.592 148.627 524.422 145.561C527.252 142.378 528.666 138.959 528.666 135.304C528.666 131.531 527.311 128.053 524.599 124.87C521.887 121.569 518.232 119.918 513.634 119.918C509.036 119.918 505.322 121.51 502.493 124.693C499.663 127.876 498.248 131.413 498.248 135.304ZM658.643 125.4C658.643 132.592 656.816 137.957 653.161 141.494C649.624 144.913 645.675 146.622 641.312 146.622H599.399C599.399 149.923 601.344 152.694 605.235 154.934C609.126 157.174 613.016 158.294 616.907 158.294C623.745 158.294 629.11 157.587 633 156.172L634.946 155.465C637.775 154.168 640.133 153.519 642.02 153.519C645.792 153.519 649.035 156.172 651.746 161.478C653.279 164.661 654.045 167.372 654.045 169.613C654.045 180.106 641.489 185.352 616.377 185.352C607.652 185.352 599.871 183.878 593.033 180.931C586.312 177.866 581.066 173.857 577.293 168.905C569.865 159.355 566.151 148.685 566.151 136.896C566.151 122.04 570.926 110.191 580.476 101.349C590.144 92.3885 602.17 87.9084 616.553 87.9084C632.941 87.9084 644.967 93.6854 652.631 105.24C656.639 111.37 658.643 118.091 658.643 125.4ZM621.328 130.529C625.809 130.529 628.049 128.643 628.049 124.87C628.049 122.158 626.988 119.977 624.865 118.326C622.861 116.676 619.914 115.85 616.023 115.85C612.25 115.85 608.477 117.442 604.705 120.625C600.932 123.691 599.045 126.992 599.045 130.529H621.328ZM716.693 89.8537C728.483 89.8537 738.268 94.3928 746.05 103.471C753.949 112.431 757.899 123.396 757.899 136.365V167.49C757.899 170.202 757.781 172.265 757.545 173.68C757.427 174.977 756.955 176.451 756.13 178.101C754.479 181.285 749.881 182.876 742.336 182.876C733.965 182.876 729.131 180.695 727.834 176.333C727.127 174.329 726.773 171.322 726.773 167.314V136.188C726.773 131.354 725.358 127.581 722.529 124.87C719.817 122.158 716.103 120.802 711.387 120.802C706.789 120.802 703.016 122.217 700.069 125.047C697.239 127.876 695.825 131.59 695.825 136.188V167.49C695.825 170.202 695.707 172.265 695.471 173.68C695.353 174.977 694.822 176.451 693.879 178.101C692.347 181.285 687.807 182.876 680.262 182.876C672.834 182.876 668.295 181.285 666.644 178.101C665.819 176.333 665.289 174.8 665.053 173.503C664.935 172.088 664.876 170.025 664.876 167.314V104.709C664.876 102.115 664.935 100.17 665.053 98.873C665.289 97.4582 665.878 95.9255 666.821 94.2749C668.472 91.3274 673.011 89.8537 680.439 89.8537C687.631 89.8537 692.052 91.2095 693.702 93.9212C694.881 95.9255 695.471 98.3424 695.471 101.172C695.942 100.347 697.004 99.1677 698.654 97.6351C700.305 96.1024 701.896 94.8644 703.429 93.9212C707.438 91.2095 711.859 89.8537 716.693 89.8537Z" fill="#FF8F2A"/>
<path d="M29.7877 167.774C16.7682 134.706 33.2212 97.8696 66.5365 85.4974L242.576 20.122C259.234 13.9359 278.014 22.3244 284.524 38.8583C291.034 55.3921 282.807 73.8103 266.15 79.9964L29.7877 167.774Z" fill="#00DEA5"/>
<path d="M86.46 156.532L305.054 75.353C321.711 69.1668 340.492 77.5553 347.002 94.0892C353.512 110.623 345.285 129.041 328.628 135.227L110.034 216.406L86.46 156.532Z" fill="#00DEA5"/>
<path d="M60.0969 244.755L296.459 156.978C313.117 150.792 331.897 159.18 338.407 175.714C344.917 192.248 336.69 210.666 320.033 216.852L143.993 282.228C110.678 294.6 73.1164 277.823 60.0969 244.755Z" fill="#00DEA5"/>
<path d="M33.1558 176.327L77.5763 159.831L101.15 219.705L56.7296 236.201L33.1558 176.327Z" fill="#FF8F2A"/>
</svg>
