<svg width="34" height="34" viewBox="0 0 34 34" fill="none" xmlns="http://www.w3.org/2000/svg">
<path d="M16.7901 30.2222C20.3525 30.2222 23.769 28.8071 26.2881 26.2881C28.8071 23.769 30.2222 20.3525 30.2222 16.7901C30.2222 13.2277 28.8071 9.8112 26.2881 7.2922C23.769 4.77319 20.3525 3.35802 16.7901 3.35802C13.2277 3.35802 9.8112 4.77319 7.2922 7.2922C4.77319 9.8112 3.35802 13.2277 3.35802 16.7901C3.35802 20.3525 4.77319 23.769 7.2922 26.2881C9.8112 28.8071 13.2277 30.2222 16.7901 30.2222V30.2222ZM16.7901 33.5802C7.51694 33.5802 0 26.0633 0 16.7901C0 7.51694 7.51694 0 16.7901 0C26.0633 0 33.5802 7.51694 33.5802 16.7901C33.5802 26.0633 26.0633 33.5802 16.7901 33.5802Z" fill="#00DEA5"/>
<path d="M25.1856 11.6641C24.5678 11.9328 23.9045 12.1174 23.2078 12.198C23.9197 11.7783 24.4637 11.1134 24.7222 10.3226C24.0438 10.7179 23.3037 10.9961 22.5328 11.1453C22.2085 10.8054 21.8184 10.5352 21.3863 10.351C20.9542 10.1668 20.4891 10.0726 20.0193 10.0741C18.117 10.0741 16.5757 11.5936 16.5757 13.4657C16.5757 13.731 16.6059 13.9895 16.6646 14.238C15.3002 14.1732 13.9642 13.8247 12.7419 13.2148C11.5196 12.6048 10.4379 11.7467 9.56578 10.6953C9.25947 11.2109 9.09819 11.7998 9.09901 12.3995C9.09901 13.5748 9.7085 14.6158 10.632 15.2219C10.0853 15.2048 9.55043 15.0593 9.07047 14.7971V14.8391C9.07566 15.6274 9.35389 16.3894 9.85779 16.9956C10.3617 17.6017 11.0601 18.0145 11.8341 18.1636C11.326 18.2979 10.7943 18.3174 10.2777 18.2207C10.5029 18.8988 10.9336 19.4899 11.5101 19.912C12.0866 20.3342 12.7802 20.5663 13.4947 20.5763C12.2689 21.5208 10.764 22.0312 9.21654 22.027C8.93951 22.027 8.66583 22.0102 8.39551 21.98C9.97457 22.9795 11.8055 23.5088 13.6743 23.5062C20.0109 23.5062 23.4747 18.3382 23.4747 13.8552L23.463 13.4153C24.1384 12.9406 24.7221 12.3473 25.1856 11.6641V11.6641Z" fill="#00DEA5"/>
</svg>
