<svg width="19" height="19" viewBox="0 0 19 19" fill="none" xmlns="http://www.w3.org/2000/svg">
<path d="M17.9313 19C15.4616 19 13.1384 18.5329 10.9618 17.5987C8.78461 16.6646 6.88478 15.3862 5.26233 13.7636C3.63924 12.1404 2.35685 10.2404 1.41517 8.0636C0.472854 5.8862 0.00169628 3.55458 0.00169628 1.06875C-0.0141356 0.78375 0.0808558 0.534217 0.286671 0.32015C0.492486 0.106717 0.745797 0 1.0466 0H4.75127C5.03625 0 5.28164 0.106717 5.48746 0.32015C5.69327 0.534217 5.79618 0.791667 5.79618 1.0925C5.79618 1.78917 5.84368 2.44625 5.93867 3.06375C6.03366 3.68125 6.18406 4.26708 6.38988 4.82125C6.46904 4.99542 6.48487 5.17338 6.43737 5.35515C6.38988 5.53755 6.29489 5.70792 6.1524 5.86625L3.77761 8.24125C4.45838 9.63458 5.42413 10.9567 6.67485 12.2075C7.92557 13.4583 9.27129 14.4558 10.712 15.2L13.0868 12.825C13.2293 12.6825 13.3955 12.5875 13.5855 12.54C13.7755 12.4925 13.9654 12.5083 14.1554 12.5875C14.7412 12.7775 15.3466 12.9238 15.9717 13.0264C16.5973 13.1296 17.2427 13.1812 17.9076 13.1812C18.2084 13.1812 18.4658 13.2921 18.6799 13.5138C18.8933 13.7354 19 14.0046 19 14.3213V17.955C19 18.24 18.8971 18.4854 18.6913 18.6912C18.4855 18.8971 18.2322 19 17.9313 19ZM12.4693 16.15C13.1818 16.4192 13.9259 16.6329 14.7016 16.7912C15.4774 16.9496 16.2769 17.0525 17.1002 17.1H17.0888H17.1002V15.0575C16.6094 15.0258 16.1069 14.9704 15.5927 14.8912C15.0778 14.8121 14.5671 14.6933 14.0604 14.535L14.0718 14.5464L14.0604 14.535L12.4693 16.15ZM17.1002 9.5C17.1002 7.37833 16.364 5.58125 14.8916 4.10875C13.4192 2.63625 11.6223 1.9 9.50085 1.9V0C10.8149 0 12.0498 0.249217 13.2055 0.74765C14.3612 1.24672 15.3666 1.92375 16.2215 2.77875C17.0764 3.63375 17.7531 4.63917 18.2515 5.795C18.7505 6.95083 19 8.18583 19 9.5H17.1002ZM13.3005 9.5C13.3005 8.455 12.9285 7.56042 12.1844 6.81625C11.4403 6.07208 10.5458 5.7 9.50085 5.7V3.8C11.084 3.8 12.4298 4.35417 13.538 5.4625C14.6462 6.57083 15.2003 7.91667 15.2003 9.5H13.3005ZM2.85144 6.48375L4.4188 4.8925C4.29215 4.43333 4.18512 3.95042 4.09773 3.44375C4.01097 2.93708 3.95176 2.4225 3.9201 1.9V1.9114V1.9H1.92527C1.95694 2.66 2.05193 3.42 2.21025 4.18C2.36857 4.94 2.5823 5.70792 2.85144 6.48375Z" fill="#00DEA5"/>
</svg>
