<svg width="34" height="34" viewBox="0 0 34 34" fill="none" xmlns="http://www.w3.org/2000/svg">
<path d="M34 17C34 13.6377 33.003 10.3509 31.135 7.55531C29.267 4.75968 26.612 2.58074 23.5056 1.29406C20.3993 0.00736586 16.9811 -0.329291 13.6835 0.326658C10.3858 0.982606 7.35668 2.6017 4.97919 4.97919C2.6017 7.35668 0.982606 10.3858 0.326658 13.6835C-0.329291 16.9811 0.00736586 20.3993 1.29406 23.5056C2.58074 26.612 4.75968 29.267 7.55531 31.135C10.3509 33.003 13.6377 34 17 34C21.5074 33.9958 25.829 32.2034 29.0162 29.0162C32.2034 25.829 33.9958 21.5074 34 17ZM18.8889 30.0806V21.4074H22.037C22.538 21.4074 23.0184 21.2084 23.3727 20.8542C23.7269 20.4999 23.9259 20.0195 23.9259 19.5185C23.9259 19.0176 23.7269 18.5371 23.3727 18.1829C23.0184 17.8286 22.538 17.6296 22.037 17.6296H18.8889V14.4815C18.8889 13.9805 19.0879 13.5001 19.4421 13.1458C19.7964 12.7916 20.2768 12.5926 20.7778 12.5926H23.2963C23.7973 12.5926 24.2777 12.3936 24.6319 12.0394C24.9862 11.6851 25.1852 11.2047 25.1852 10.7037C25.1852 10.2027 24.9862 9.7223 24.6319 9.36806C24.2777 9.01383 23.7973 8.81482 23.2963 8.81482H20.7778C19.2749 8.81482 17.8335 9.41184 16.7708 10.4745C15.7081 11.5373 15.1111 12.9786 15.1111 14.4815V17.6296H11.963C11.462 17.6296 10.9816 17.8286 10.6273 18.1829C10.2731 18.5371 10.0741 19.0176 10.0741 19.5185C10.0741 20.0195 10.2731 20.4999 10.6273 20.8542C10.9816 21.2084 11.462 21.4074 11.963 21.4074H15.1111V30.0806C11.8026 29.603 8.79769 27.89 6.70123 25.2863C4.60477 22.6825 3.57234 19.3813 3.81173 16.0471C4.05112 12.7128 5.54455 9.59299 7.99147 7.31545C10.4384 5.03791 13.6572 3.77173 17 3.77173C20.3428 3.77173 23.5616 5.03791 26.0085 7.31545C28.4555 9.59299 29.9489 12.7128 30.1883 16.0471C30.4277 19.3813 29.3952 22.6825 27.2988 25.2863C25.2023 27.89 22.1974 29.603 18.8889 30.0806Z" fill="#00DEA5"/>
</svg>
