<svg width="13" height="12" viewBox="0 0 13 12" fill="none" xmlns="http://www.w3.org/2000/svg">
<path d="M10.9092 3.23809L2.45682 11.7143C2.26635 11.9048 2.04 12 1.77777 12C1.51619 12 1.29016 11.9048 1.09968 11.7143C0.909203 11.5238 0.813965 11.2975 0.813965 11.0352C0.813965 10.7737 0.909203 10.5476 1.09968 10.3571L9.57587 1.90476H2.33777C2.06793 1.90476 1.84158 1.81365 1.65873 1.63143C1.4765 1.44857 1.38539 1.22222 1.38539 0.952381C1.38539 0.68254 1.4765 0.456191 1.65873 0.273333C1.84158 0.0911113 2.06793 0 2.33777 0H11.8616C12.1314 0 12.3575 0.0911113 12.5397 0.273333C12.7225 0.456191 12.814 0.68254 12.814 0.952381V10.4762C12.814 10.746 12.7225 10.9721 12.5397 11.1543C12.3575 11.3371 12.1314 11.4286 11.8616 11.4286C11.5917 11.4286 11.3657 11.3371 11.1835 11.1543C11.0006 10.9721 10.9092 10.746 10.9092 10.4762V3.23809Z" fill="black"/>
</svg>
